<svg width="274" height="106" viewBox="0 0 274 106" fill="none" xmlns="http://www.w3.org/2000/svg">
<rect width="274" height="106" fill="white"/>
<rect x="96" y="37" width="18" height="37" fill="#81C9DC" fill-opacity="0.5"/>
<rect x="96.5" y="37.5" width="36" height="36" stroke="#B8E9FF"/>
<rect x="188" y="37" width="26" height="53" fill="#E8D188" fill-opacity="0.5"/>
<rect x="188.5" y="37.5" width="52" height="52" stroke="#4DC7FF" stroke-opacity="0.4"/>
<rect x="13" y="37" width="14" height="26" fill="#A4023E" fill-opacity="0.5"/>
<rect x="13.5" y="37.5" width="28" height="25" stroke="#B8E9FF"/>
<path d="M18.21 19H13.5518V18.3506L15.8809 15.7627C16.0892 15.5316 16.2633 15.3265 16.4033 15.1475C16.5433 14.9684 16.6556 14.804 16.7402 14.6543C16.8249 14.5013 16.8851 14.3581 16.9209 14.2246C16.9567 14.0879 16.9746 13.9479 16.9746 13.8047C16.9746 13.6289 16.9453 13.4645 16.8867 13.3115C16.8314 13.1553 16.7484 13.0202 16.6377 12.9062C16.5303 12.7923 16.3984 12.7028 16.2422 12.6377C16.0892 12.5693 15.915 12.5352 15.7197 12.5352C15.4821 12.5352 15.2754 12.5693 15.0996 12.6377C14.9271 12.7061 14.7822 12.8037 14.665 12.9307C14.5511 13.0544 14.4648 13.2057 14.4062 13.3848C14.3509 13.5638 14.3232 13.764 14.3232 13.9854H13.415C13.415 13.6859 13.4671 13.4043 13.5713 13.1406C13.6755 12.8737 13.8252 12.641 14.0205 12.4424C14.2191 12.2438 14.46 12.0859 14.7432 11.9688C15.0296 11.8516 15.3551 11.793 15.7197 11.793C16.055 11.793 16.3561 11.8434 16.623 11.9443C16.8932 12.042 17.1211 12.1787 17.3066 12.3545C17.4922 12.5303 17.6338 12.7386 17.7314 12.9795C17.8324 13.2204 17.8828 13.4824 17.8828 13.7656C17.8828 13.9772 17.847 14.1872 17.7754 14.3955C17.7038 14.6006 17.6061 14.804 17.4824 15.0059C17.362 15.2077 17.2204 15.4079 17.0576 15.6064C16.8981 15.8018 16.7288 15.9971 16.5498 16.1924L14.6406 18.2627H18.21V19ZM20.8271 18.1992C21.1494 18.1992 21.4326 18.1715 21.6768 18.1162C21.9209 18.0576 22.1325 17.9762 22.3115 17.8721C22.4938 17.7679 22.6452 17.6458 22.7656 17.5059C22.8861 17.3626 22.9837 17.2064 23.0586 17.0371C23.1367 16.8646 23.1937 16.6839 23.2295 16.4951C23.2653 16.3031 23.2881 16.1077 23.2979 15.9092C23.2197 16.0068 23.1302 16.0996 23.0293 16.1875C22.9284 16.2721 22.8145 16.347 22.6875 16.4121C22.5605 16.4772 22.4189 16.5293 22.2627 16.5684C22.1097 16.6042 21.9421 16.6221 21.7598 16.6221C21.4082 16.6221 21.1038 16.5537 20.8467 16.417C20.5928 16.277 20.3828 16.0947 20.2168 15.8701C20.0508 15.6455 19.9287 15.3916 19.8506 15.1084C19.7725 14.8252 19.7334 14.5404 19.7334 14.2539C19.7334 13.9186 19.779 13.6029 19.8701 13.3066C19.9645 13.0072 20.1029 12.7467 20.2852 12.5254C20.4707 12.3008 20.7002 12.1234 20.9736 11.9932C21.2503 11.8597 21.571 11.793 21.9355 11.793C22.209 11.793 22.4548 11.832 22.6729 11.9102C22.8942 11.985 23.0879 12.0908 23.2539 12.2275C23.4232 12.361 23.568 12.5205 23.6885 12.7061C23.8089 12.8883 23.9066 13.0869 23.9814 13.3018C24.0596 13.5133 24.1165 13.7363 24.1523 13.9707C24.1882 14.2018 24.2061 14.4346 24.2061 14.6689V14.9961C24.2061 15.2988 24.1914 15.6097 24.1621 15.9287C24.1328 16.2445 24.0742 16.5505 23.9863 16.8467C23.9017 17.1429 23.7812 17.4229 23.625 17.6865C23.4688 17.9469 23.2653 18.1748 23.0146 18.3701C22.764 18.5654 22.4596 18.7201 22.1016 18.834C21.7435 18.9479 21.3187 19.0049 20.8271 19.0049H20.7344V18.1992H20.8271ZM21.9062 15.875C22.0592 15.875 22.2074 15.8506 22.3506 15.8018C22.4971 15.7497 22.6305 15.6781 22.751 15.5869C22.8747 15.4925 22.9837 15.3835 23.0781 15.2598C23.1758 15.1328 23.2523 14.9928 23.3076 14.8398V14.5469C23.3076 14.2311 23.2702 13.9495 23.1953 13.7021C23.1237 13.4548 23.0244 13.2464 22.8975 13.0771C22.7738 12.9046 22.6289 12.7728 22.4629 12.6816C22.3001 12.5905 22.126 12.5449 21.9404 12.5449C21.7288 12.5449 21.5417 12.5872 21.3789 12.6719C21.2161 12.7565 21.0778 12.8737 20.9639 13.0234C20.8532 13.1699 20.7686 13.3457 20.71 13.5508C20.6514 13.7526 20.6221 13.9707 20.6221 14.2051C20.6221 14.4134 20.6481 14.6185 20.7002 14.8203C20.7523 15.0189 20.8304 15.1963 20.9346 15.3525C21.042 15.5088 21.1755 15.6357 21.335 15.7334C21.4977 15.8278 21.6882 15.875 21.9062 15.875ZM28.0439 15.6748L29.4551 13.7168H30.5146L28.5469 16.3291L30.5684 19H29.5234L28.0635 16.9883L26.6035 19H25.5488L27.5703 16.3291L25.6025 13.7168H26.6475L28.0439 15.6748ZM36.2275 19H31.5693V18.3506L33.8984 15.7627C34.1068 15.5316 34.2809 15.3265 34.4209 15.1475C34.5609 14.9684 34.6732 14.804 34.7578 14.6543C34.8424 14.5013 34.9027 14.3581 34.9385 14.2246C34.9743 14.0879 34.9922 13.9479 34.9922 13.8047C34.9922 13.6289 34.9629 13.4645 34.9043 13.3115C34.849 13.1553 34.766 13.0202 34.6553 12.9062C34.5479 12.7923 34.416 12.7028 34.2598 12.6377C34.1068 12.5693 33.9326 12.5352 33.7373 12.5352C33.4997 12.5352 33.293 12.5693 33.1172 12.6377C32.9447 12.7061 32.7998 12.8037 32.6826 12.9307C32.5687 13.0544 32.4824 13.2057 32.4238 13.3848C32.3685 13.5638 32.3408 13.764 32.3408 13.9854H31.4326C31.4326 13.6859 31.4847 13.4043 31.5889 13.1406C31.693 12.8737 31.8428 12.641 32.0381 12.4424C32.2367 12.2438 32.4775 12.0859 32.7607 11.9688C33.0472 11.8516 33.3727 11.793 33.7373 11.793C34.0726 11.793 34.3737 11.8434 34.6406 11.9443C34.9108 12.042 35.1387 12.1787 35.3242 12.3545C35.5098 12.5303 35.6514 12.7386 35.749 12.9795C35.8499 13.2204 35.9004 13.4824 35.9004 13.7656C35.9004 13.9772 35.8646 14.1872 35.793 14.3955C35.7214 14.6006 35.6237 14.804 35.5 15.0059C35.3796 15.2077 35.238 15.4079 35.0752 15.6064C34.9157 15.8018 34.7464 15.9971 34.5674 16.1924L32.6582 18.2627H36.2275V19ZM38.8447 18.1992C39.167 18.1992 39.4502 18.1715 39.6943 18.1162C39.9385 18.0576 40.1501 17.9762 40.3291 17.8721C40.5114 17.7679 40.6628 17.6458 40.7832 17.5059C40.9036 17.3626 41.0013 17.2064 41.0762 17.0371C41.1543 16.8646 41.2113 16.6839 41.2471 16.4951C41.2829 16.3031 41.3057 16.1077 41.3154 15.9092C41.2373 16.0068 41.1478 16.0996 41.0469 16.1875C40.946 16.2721 40.832 16.347 40.7051 16.4121C40.5781 16.4772 40.4365 16.5293 40.2803 16.5684C40.1273 16.6042 39.9596 16.6221 39.7773 16.6221C39.4258 16.6221 39.1214 16.5537 38.8643 16.417C38.6104 16.277 38.4004 16.0947 38.2344 15.8701C38.0684 15.6455 37.9463 15.3916 37.8682 15.1084C37.79 14.8252 37.751 14.5404 37.751 14.2539C37.751 13.9186 37.7965 13.6029 37.8877 13.3066C37.9821 13.0072 38.1204 12.7467 38.3027 12.5254C38.4883 12.3008 38.7178 12.1234 38.9912 11.9932C39.2679 11.8597 39.5885 11.793 39.9531 11.793C40.2266 11.793 40.4723 11.832 40.6904 11.9102C40.9118 11.985 41.1055 12.0908 41.2715 12.2275C41.4408 12.361 41.5856 12.5205 41.7061 12.7061C41.8265 12.8883 41.9242 13.0869 41.999 13.3018C42.0771 13.5133 42.1341 13.7363 42.1699 13.9707C42.2057 14.2018 42.2236 14.4346 42.2236 14.6689V14.9961C42.2236 15.2988 42.209 15.6097 42.1797 15.9287C42.1504 16.2445 42.0918 16.5505 42.0039 16.8467C41.9193 17.1429 41.7988 17.4229 41.6426 17.6865C41.4863 17.9469 41.2829 18.1748 41.0322 18.3701C40.7816 18.5654 40.4772 18.7201 40.1191 18.834C39.7611 18.9479 39.3363 19.0049 38.8447 19.0049H38.752V18.1992H38.8447ZM39.9238 15.875C40.0768 15.875 40.2249 15.8506 40.3682 15.8018C40.5146 15.7497 40.6481 15.6781 40.7686 15.5869C40.8923 15.4925 41.0013 15.3835 41.0957 15.2598C41.1934 15.1328 41.2699 14.9928 41.3252 14.8398V14.5469C41.3252 14.2311 41.2878 13.9495 41.2129 13.7021C41.1413 13.4548 41.042 13.2464 40.915 13.0771C40.7913 12.9046 40.6465 12.7728 40.4805 12.6816C40.3177 12.5905 40.1436 12.5449 39.958 12.5449C39.7464 12.5449 39.5592 12.5872 39.3965 12.6719C39.2337 12.7565 39.0954 12.8737 38.9814 13.0234C38.8708 13.1699 38.7861 13.3457 38.7275 13.5508C38.6689 13.7526 38.6396 13.9707 38.6396 14.2051C38.6396 14.4134 38.6657 14.6185 38.7178 14.8203C38.7699 15.0189 38.848 15.1963 38.9521 15.3525C39.0596 15.5088 39.193 15.6357 39.3525 15.7334C39.5153 15.8278 39.7057 15.875 39.9238 15.875ZM45.4512 18.4141C45.4512 18.3164 45.4658 18.2253 45.4951 18.1406C45.5277 18.056 45.5732 17.9827 45.6318 17.9209C45.6904 17.8558 45.7637 17.8053 45.8516 17.7695C45.9395 17.7337 46.042 17.7158 46.1592 17.7158C46.2764 17.7158 46.3789 17.7337 46.4668 17.7695C46.5579 17.8053 46.6328 17.8558 46.6914 17.9209C46.7533 17.9827 46.7988 18.056 46.8281 18.1406C46.8607 18.2253 46.877 18.3164 46.877 18.4141C46.877 18.5085 46.8607 18.598 46.8281 18.6826C46.7988 18.764 46.7533 18.8356 46.6914 18.8975C46.6328 18.9593 46.5579 19.0065 46.4668 19.0391C46.3789 19.0749 46.2764 19.0928 46.1592 19.0928C46.042 19.0928 45.9395 19.0749 45.8516 19.0391C45.7637 19.0065 45.6904 18.9593 45.6318 18.8975C45.5732 18.8356 45.5277 18.764 45.4951 18.6826C45.4658 18.598 45.4512 18.5085 45.4512 18.4141ZM54.3428 16.417C54.3428 16.7946 54.2972 17.1478 54.2061 17.4766C54.1149 17.8021 53.9814 18.0853 53.8057 18.3262C53.6299 18.5671 53.4118 18.7559 53.1514 18.8926C52.8942 19.0293 52.5996 19.0977 52.2676 19.0977C51.9453 19.0977 51.6605 19.0456 51.4131 18.9414C51.1689 18.8372 50.959 18.6875 50.7832 18.4922V21.0312H49.8799V13.7168H50.7051L50.749 14.293C50.9248 14.0749 51.1364 13.9089 51.3838 13.7949C51.6344 13.6777 51.9242 13.6191 52.2529 13.6191C52.5915 13.6191 52.891 13.6859 53.1514 13.8193C53.4118 13.9528 53.6299 14.1383 53.8057 14.376C53.9814 14.6136 54.1149 14.8984 54.2061 15.2305C54.2972 15.5592 54.3428 15.9206 54.3428 16.3145V16.417ZM53.4395 16.3145C53.4395 16.0573 53.4102 15.8132 53.3516 15.582C53.2962 15.3477 53.2083 15.1426 53.0879 14.9668C52.9707 14.7878 52.821 14.6462 52.6387 14.542C52.4564 14.4378 52.2383 14.3857 51.9844 14.3857C51.6947 14.3857 51.4505 14.4541 51.252 14.5908C51.0566 14.7243 50.9004 14.8968 50.7832 15.1084V17.6523C50.9004 17.8607 51.0566 18.0316 51.252 18.165C51.4473 18.2952 51.6947 18.3604 51.9941 18.3604C52.2448 18.3604 52.4613 18.3083 52.6436 18.2041C52.8258 18.0967 52.9756 17.9535 53.0928 17.7744C53.21 17.5954 53.2962 17.3887 53.3516 17.1543C53.4102 16.9199 53.4395 16.6742 53.4395 16.417V16.3145ZM56.7012 13.7168L56.7646 14.498C56.9567 14.2246 57.1927 14.0114 57.4727 13.8584C57.7526 13.7021 58.0651 13.6224 58.4102 13.6191C58.6868 13.6191 58.9375 13.6582 59.1621 13.7363C59.39 13.8145 59.5837 13.9365 59.7432 14.1025C59.9027 14.2686 60.0247 14.4801 60.1094 14.7373C60.1973 14.9912 60.2412 15.2939 60.2412 15.6455V19H59.3379V15.665C59.3379 15.4307 59.3118 15.2321 59.2598 15.0693C59.2077 14.9066 59.1296 14.7747 59.0254 14.6738C58.9245 14.5729 58.7992 14.4997 58.6494 14.4541C58.5029 14.4085 58.3337 14.3857 58.1416 14.3857C57.8389 14.3857 57.5719 14.4622 57.3408 14.6152C57.113 14.765 56.9307 14.9635 56.7939 15.2109V19H55.8906V13.7168H56.7012ZM61.7305 16.3145C61.7305 15.9206 61.7777 15.5592 61.8721 15.2305C61.9697 14.8984 62.1097 14.6136 62.292 14.376C62.4743 14.1383 62.6956 13.9528 62.9561 13.8193C63.2165 13.6859 63.5111 13.6191 63.8398 13.6191C64.1654 13.6191 64.4502 13.6777 64.6943 13.7949C64.9417 13.9089 65.1517 14.0749 65.3242 14.293L65.3682 13.7168H66.1885V18.8877C66.1885 19.236 66.1331 19.5452 66.0225 19.8154C65.915 20.0856 65.762 20.3151 65.5635 20.5039C65.3682 20.6927 65.1338 20.8359 64.8604 20.9336C64.5869 21.0312 64.2842 21.0801 63.9521 21.0801C63.8154 21.0801 63.6592 21.0638 63.4834 21.0312C63.3076 21.002 63.1286 20.9515 62.9463 20.8799C62.7673 20.8115 62.5931 20.7188 62.4238 20.6016C62.2578 20.4844 62.1146 20.3395 61.9941 20.167L62.4629 19.625C62.5736 19.7585 62.6875 19.8708 62.8047 19.9619C62.9219 20.0563 63.0407 20.1312 63.1611 20.1865C63.2816 20.2419 63.402 20.2809 63.5225 20.3037C63.6429 20.3298 63.7633 20.3428 63.8838 20.3428C64.0986 20.3428 64.2923 20.3118 64.4648 20.25C64.6374 20.1882 64.7839 20.097 64.9043 19.9766C65.028 19.8594 65.1224 19.7129 65.1875 19.5371C65.2526 19.3613 65.2852 19.1595 65.2852 18.9316V18.4775C65.1094 18.6794 64.901 18.834 64.6602 18.9414C64.4225 19.0456 64.1458 19.0977 63.8301 19.0977C63.5078 19.0977 63.2165 19.0293 62.9561 18.8926C62.6956 18.7559 62.4743 18.5671 62.292 18.3262C62.113 18.0853 61.9746 17.8021 61.877 17.4766C61.7793 17.1478 61.7305 16.7946 61.7305 16.417V16.3145ZM62.6338 16.417C62.6338 16.6742 62.6598 16.9183 62.7119 17.1494C62.7673 17.3805 62.8519 17.584 62.9658 17.7598C63.083 17.9355 63.2311 18.0755 63.4102 18.1797C63.5892 18.2806 63.804 18.3311 64.0547 18.3311C64.2109 18.3311 64.3509 18.3132 64.4746 18.2773C64.6016 18.2383 64.7139 18.1846 64.8115 18.1162C64.9124 18.0479 65.002 17.9665 65.0801 17.8721C65.1582 17.7777 65.2266 17.6735 65.2852 17.5596V15.1377C65.2266 15.027 65.1582 14.9261 65.0801 14.835C65.002 14.7438 64.9124 14.6657 64.8115 14.6006C64.7106 14.5322 64.5983 14.4801 64.4746 14.4443C64.3509 14.4053 64.2142 14.3857 64.0645 14.3857C63.8105 14.3857 63.5924 14.4378 63.4102 14.542C63.2311 14.6462 63.083 14.7878 62.9658 14.9668C62.8519 15.1426 62.7673 15.3477 62.7119 15.582C62.6598 15.8132 62.6338 16.0573 62.6338 16.3145V16.417Z" fill="black"/>
<path d="M97.9043 15.0107H98.5488C98.7767 15.0107 98.9769 14.9798 99.1494 14.918C99.3252 14.8561 99.4717 14.7715 99.5889 14.6641C99.7093 14.5566 99.8005 14.4281 99.8623 14.2783C99.9242 14.1286 99.9551 13.9642 99.9551 13.7852C99.9551 13.3717 99.8493 13.0609 99.6377 12.8525C99.4261 12.641 99.1169 12.5352 98.71 12.5352C98.5179 12.5352 98.3421 12.5645 98.1826 12.623C98.0264 12.6784 97.8913 12.7598 97.7773 12.8672C97.6667 12.9746 97.5804 13.1032 97.5186 13.2529C97.4567 13.4027 97.4258 13.5703 97.4258 13.7559H96.5176C96.5176 13.4857 96.5697 13.2318 96.6738 12.9941C96.7812 12.7533 96.931 12.5449 97.123 12.3691C97.3151 12.1901 97.5446 12.0501 97.8115 11.9492C98.0817 11.8451 98.3812 11.793 98.71 11.793C99.029 11.793 99.3203 11.8369 99.584 11.9248C99.8477 12.0094 100.074 12.1364 100.263 12.3057C100.451 12.4749 100.598 12.6849 100.702 12.9355C100.806 13.1862 100.858 13.4759 100.858 13.8047C100.858 13.9414 100.837 14.083 100.795 14.2295C100.753 14.376 100.688 14.5192 100.6 14.6592C100.512 14.7959 100.398 14.9261 100.258 15.0498C100.121 15.1702 99.9567 15.2712 99.7646 15.3525C99.9958 15.4274 100.188 15.5251 100.341 15.6455C100.497 15.766 100.621 15.901 100.712 16.0508C100.806 16.2005 100.871 16.3584 100.907 16.5244C100.946 16.6904 100.966 16.8548 100.966 17.0176C100.966 17.3496 100.909 17.6442 100.795 17.9014C100.681 18.1585 100.523 18.3766 100.321 18.5557C100.119 18.7314 99.8802 18.8665 99.6035 18.9609C99.3301 19.0521 99.0339 19.0977 98.7148 19.0977C98.4023 19.0977 98.1077 19.0537 97.8311 18.9658C97.5576 18.8779 97.32 18.7493 97.1182 18.5801C96.9163 18.4108 96.7552 18.2041 96.6348 17.96C96.5176 17.7158 96.459 17.4375 96.459 17.125H97.3623C97.3623 17.3105 97.3932 17.4798 97.4551 17.6328C97.5202 17.7858 97.6113 17.916 97.7285 18.0234C97.8457 18.1309 97.9873 18.2139 98.1533 18.2725C98.3226 18.3311 98.5098 18.3604 98.7148 18.3604C98.9199 18.3604 99.1055 18.3343 99.2715 18.2822C99.4375 18.2269 99.5791 18.1439 99.6963 18.0332C99.8135 17.9225 99.903 17.7858 99.9648 17.623C100.03 17.457 100.062 17.2617 100.062 17.0371C100.062 16.8158 100.025 16.6253 99.9502 16.4658C99.8786 16.3031 99.776 16.168 99.6426 16.0605C99.5124 15.9531 99.3529 15.8734 99.1641 15.8213C98.9785 15.7692 98.7734 15.7432 98.5488 15.7432H97.9043V15.0107ZM107.357 12.3984L104.413 19H103.466L106.4 12.6816H102.553V11.8906H107.357V12.3984ZM111.044 15.6748L112.455 13.7168H113.515L111.547 16.3291L113.568 19H112.523L111.063 16.9883L109.604 19H108.549L110.57 16.3291L108.603 13.7168H109.647L111.044 15.6748ZM115.922 15.0107H116.566C116.794 15.0107 116.994 14.9798 117.167 14.918C117.343 14.8561 117.489 14.7715 117.606 14.6641C117.727 14.5566 117.818 14.4281 117.88 14.2783C117.942 14.1286 117.973 13.9642 117.973 13.7852C117.973 13.3717 117.867 13.0609 117.655 12.8525C117.444 12.641 117.134 12.5352 116.728 12.5352C116.535 12.5352 116.36 12.5645 116.2 12.623C116.044 12.6784 115.909 12.7598 115.795 12.8672C115.684 12.9746 115.598 13.1032 115.536 13.2529C115.474 13.4027 115.443 13.5703 115.443 13.7559H114.535C114.535 13.4857 114.587 13.2318 114.691 12.9941C114.799 12.7533 114.949 12.5449 115.141 12.3691C115.333 12.1901 115.562 12.0501 115.829 11.9492C116.099 11.8451 116.399 11.793 116.728 11.793C117.047 11.793 117.338 11.8369 117.602 11.9248C117.865 12.0094 118.091 12.1364 118.28 12.3057C118.469 12.4749 118.616 12.6849 118.72 12.9355C118.824 13.1862 118.876 13.4759 118.876 13.8047C118.876 13.9414 118.855 14.083 118.812 14.2295C118.77 14.376 118.705 14.5192 118.617 14.6592C118.529 14.7959 118.415 14.9261 118.275 15.0498C118.139 15.1702 117.974 15.2712 117.782 15.3525C118.013 15.4274 118.205 15.5251 118.358 15.6455C118.515 15.766 118.638 15.901 118.729 16.0508C118.824 16.2005 118.889 16.3584 118.925 16.5244C118.964 16.6904 118.983 16.8548 118.983 17.0176C118.983 17.3496 118.926 17.6442 118.812 17.9014C118.699 18.1585 118.541 18.3766 118.339 18.5557C118.137 18.7314 117.898 18.8665 117.621 18.9609C117.348 19.0521 117.051 19.0977 116.732 19.0977C116.42 19.0977 116.125 19.0537 115.849 18.9658C115.575 18.8779 115.338 18.7493 115.136 18.5801C114.934 18.4108 114.773 18.2041 114.652 17.96C114.535 17.7158 114.477 17.4375 114.477 17.125H115.38C115.38 17.3105 115.411 17.4798 115.473 17.6328C115.538 17.7858 115.629 17.916 115.746 18.0234C115.863 18.1309 116.005 18.2139 116.171 18.2725C116.34 18.3311 116.527 18.3604 116.732 18.3604C116.938 18.3604 117.123 18.3343 117.289 18.2822C117.455 18.2269 117.597 18.1439 117.714 18.0332C117.831 17.9225 117.921 17.7858 117.982 17.623C118.048 17.457 118.08 17.2617 118.08 17.0371C118.08 16.8158 118.043 16.6253 117.968 16.4658C117.896 16.3031 117.794 16.168 117.66 16.0605C117.53 15.9531 117.37 15.8734 117.182 15.8213C116.996 15.7692 116.791 15.7432 116.566 15.7432H115.922V15.0107ZM125.375 12.3984L122.431 19H121.483L124.418 12.6816H120.57V11.8906H125.375V12.3984ZM128.451 18.4141C128.451 18.3164 128.466 18.2253 128.495 18.1406C128.528 18.056 128.573 17.9827 128.632 17.9209C128.69 17.8558 128.764 17.8053 128.852 17.7695C128.939 17.7337 129.042 17.7158 129.159 17.7158C129.276 17.7158 129.379 17.7337 129.467 17.7695C129.558 17.8053 129.633 17.8558 129.691 17.9209C129.753 17.9827 129.799 18.056 129.828 18.1406C129.861 18.2253 129.877 18.3164 129.877 18.4141C129.877 18.5085 129.861 18.598 129.828 18.6826C129.799 18.764 129.753 18.8356 129.691 18.8975C129.633 18.9593 129.558 19.0065 129.467 19.0391C129.379 19.0749 129.276 19.0928 129.159 19.0928C129.042 19.0928 128.939 19.0749 128.852 19.0391C128.764 19.0065 128.69 18.9593 128.632 18.8975C128.573 18.8356 128.528 18.764 128.495 18.6826C128.466 18.598 128.451 18.5085 128.451 18.4141ZM137.343 16.417C137.343 16.7946 137.297 17.1478 137.206 17.4766C137.115 17.8021 136.981 18.0853 136.806 18.3262C136.63 18.5671 136.412 18.7559 136.151 18.8926C135.894 19.0293 135.6 19.0977 135.268 19.0977C134.945 19.0977 134.66 19.0456 134.413 18.9414C134.169 18.8372 133.959 18.6875 133.783 18.4922V21.0312H132.88V13.7168H133.705L133.749 14.293C133.925 14.0749 134.136 13.9089 134.384 13.7949C134.634 13.6777 134.924 13.6191 135.253 13.6191C135.591 13.6191 135.891 13.6859 136.151 13.8193C136.412 13.9528 136.63 14.1383 136.806 14.376C136.981 14.6136 137.115 14.8984 137.206 15.2305C137.297 15.5592 137.343 15.9206 137.343 16.3145V16.417ZM136.439 16.3145C136.439 16.0573 136.41 15.8132 136.352 15.582C136.296 15.3477 136.208 15.1426 136.088 14.9668C135.971 14.7878 135.821 14.6462 135.639 14.542C135.456 14.4378 135.238 14.3857 134.984 14.3857C134.695 14.3857 134.451 14.4541 134.252 14.5908C134.057 14.7243 133.9 14.8968 133.783 15.1084V17.6523C133.9 17.8607 134.057 18.0316 134.252 18.165C134.447 18.2952 134.695 18.3604 134.994 18.3604C135.245 18.3604 135.461 18.3083 135.644 18.2041C135.826 18.0967 135.976 17.9535 136.093 17.7744C136.21 17.5954 136.296 17.3887 136.352 17.1543C136.41 16.9199 136.439 16.6742 136.439 16.417V16.3145ZM139.701 13.7168L139.765 14.498C139.957 14.2246 140.193 14.0114 140.473 13.8584C140.753 13.7021 141.065 13.6224 141.41 13.6191C141.687 13.6191 141.938 13.6582 142.162 13.7363C142.39 13.8145 142.584 13.9365 142.743 14.1025C142.903 14.2686 143.025 14.4801 143.109 14.7373C143.197 14.9912 143.241 15.2939 143.241 15.6455V19H142.338V15.665C142.338 15.4307 142.312 15.2321 142.26 15.0693C142.208 14.9066 142.13 14.7747 142.025 14.6738C141.924 14.5729 141.799 14.4997 141.649 14.4541C141.503 14.4085 141.334 14.3857 141.142 14.3857C140.839 14.3857 140.572 14.4622 140.341 14.6152C140.113 14.765 139.931 14.9635 139.794 15.2109V19H138.891V13.7168H139.701ZM144.73 16.3145C144.73 15.9206 144.778 15.5592 144.872 15.2305C144.97 14.8984 145.11 14.6136 145.292 14.376C145.474 14.1383 145.696 13.9528 145.956 13.8193C146.216 13.6859 146.511 13.6191 146.84 13.6191C147.165 13.6191 147.45 13.6777 147.694 13.7949C147.942 13.9089 148.152 14.0749 148.324 14.293L148.368 13.7168H149.188V18.8877C149.188 19.236 149.133 19.5452 149.022 19.8154C148.915 20.0856 148.762 20.3151 148.563 20.5039C148.368 20.6927 148.134 20.8359 147.86 20.9336C147.587 21.0312 147.284 21.0801 146.952 21.0801C146.815 21.0801 146.659 21.0638 146.483 21.0312C146.308 21.002 146.129 20.9515 145.946 20.8799C145.767 20.8115 145.593 20.7188 145.424 20.6016C145.258 20.4844 145.115 20.3395 144.994 20.167L145.463 19.625C145.574 19.7585 145.688 19.8708 145.805 19.9619C145.922 20.0563 146.041 20.1312 146.161 20.1865C146.282 20.2419 146.402 20.2809 146.522 20.3037C146.643 20.3298 146.763 20.3428 146.884 20.3428C147.099 20.3428 147.292 20.3118 147.465 20.25C147.637 20.1882 147.784 20.097 147.904 19.9766C148.028 19.8594 148.122 19.7129 148.188 19.5371C148.253 19.3613 148.285 19.1595 148.285 18.9316V18.4775C148.109 18.6794 147.901 18.834 147.66 18.9414C147.423 19.0456 147.146 19.0977 146.83 19.0977C146.508 19.0977 146.216 19.0293 145.956 18.8926C145.696 18.7559 145.474 18.5671 145.292 18.3262C145.113 18.0853 144.975 17.8021 144.877 17.4766C144.779 17.1478 144.73 16.7946 144.73 16.417V16.3145ZM145.634 16.417C145.634 16.6742 145.66 16.9183 145.712 17.1494C145.767 17.3805 145.852 17.584 145.966 17.7598C146.083 17.9355 146.231 18.0755 146.41 18.1797C146.589 18.2806 146.804 18.3311 147.055 18.3311C147.211 18.3311 147.351 18.3132 147.475 18.2773C147.602 18.2383 147.714 18.1846 147.812 18.1162C147.912 18.0479 148.002 17.9665 148.08 17.8721C148.158 17.7777 148.227 17.6735 148.285 17.5596V15.1377C148.227 15.027 148.158 14.9261 148.08 14.835C148.002 14.7438 147.912 14.6657 147.812 14.6006C147.711 14.5322 147.598 14.4801 147.475 14.4443C147.351 14.4053 147.214 14.3857 147.064 14.3857C146.811 14.3857 146.592 14.4378 146.41 14.542C146.231 14.6462 146.083 14.7878 145.966 14.9668C145.852 15.1426 145.767 15.3477 145.712 15.582C145.66 15.8132 145.634 16.0573 145.634 16.3145V16.417Z" fill="black"/>
<path d="M188.172 15.4355L188.528 11.8906H192.176V12.7695H189.29L189.09 14.6641C189.23 14.5827 189.397 14.5111 189.593 14.4492C189.788 14.3874 190.014 14.3564 190.271 14.3564C190.6 14.3564 190.895 14.4134 191.155 14.5273C191.416 14.6413 191.637 14.8024 191.819 15.0107C192.002 15.2158 192.142 15.4648 192.239 15.7578C192.337 16.0508 192.386 16.3763 192.386 16.7344C192.386 17.0729 192.34 17.387 192.249 17.6768C192.158 17.9665 192.02 18.2171 191.834 18.4287C191.652 18.637 191.421 18.8014 191.141 18.9219C190.861 19.0391 190.532 19.0977 190.154 19.0977C189.865 19.0977 189.591 19.057 189.334 18.9756C189.077 18.8942 188.847 18.7721 188.646 18.6094C188.447 18.4466 188.283 18.2415 188.152 17.9941C188.025 17.7467 187.946 17.4587 187.913 17.1299H188.772C188.828 17.5335 188.976 17.8395 189.217 18.0479C189.461 18.2562 189.773 18.3604 190.154 18.3604C190.369 18.3604 190.56 18.3229 190.726 18.248C190.892 18.1699 191.03 18.0609 191.141 17.9209C191.255 17.7777 191.339 17.6068 191.395 17.4082C191.453 17.2096 191.482 16.9883 191.482 16.7441C191.482 16.5228 191.45 16.3161 191.385 16.124C191.323 15.932 191.232 15.766 191.111 15.626C190.991 15.4827 190.843 15.3704 190.667 15.2891C190.491 15.2077 190.289 15.167 190.062 15.167C189.912 15.167 189.782 15.1784 189.671 15.2012C189.563 15.2207 189.466 15.25 189.378 15.2891C189.29 15.3281 189.207 15.3753 189.129 15.4307C189.054 15.486 188.976 15.5495 188.895 15.6211L188.172 15.4355ZM194.91 15.0107H195.555C195.783 15.0107 195.983 14.9798 196.155 14.918C196.331 14.8561 196.478 14.7715 196.595 14.6641C196.715 14.5566 196.806 14.4281 196.868 14.2783C196.93 14.1286 196.961 13.9642 196.961 13.7852C196.961 13.3717 196.855 13.0609 196.644 12.8525C196.432 12.641 196.123 12.5352 195.716 12.5352C195.524 12.5352 195.348 12.5645 195.188 12.623C195.032 12.6784 194.897 12.7598 194.783 12.8672C194.673 12.9746 194.586 13.1032 194.524 13.2529C194.463 13.4027 194.432 13.5703 194.432 13.7559H193.523C193.523 13.4857 193.576 13.2318 193.68 12.9941C193.787 12.7533 193.937 12.5449 194.129 12.3691C194.321 12.1901 194.55 12.0501 194.817 11.9492C195.088 11.8451 195.387 11.793 195.716 11.793C196.035 11.793 196.326 11.8369 196.59 11.9248C196.854 12.0094 197.08 12.1364 197.269 12.3057C197.457 12.4749 197.604 12.6849 197.708 12.9355C197.812 13.1862 197.864 13.4759 197.864 13.8047C197.864 13.9414 197.843 14.083 197.801 14.2295C197.758 14.376 197.693 14.5192 197.605 14.6592C197.518 14.7959 197.404 14.9261 197.264 15.0498C197.127 15.1702 196.963 15.2712 196.771 15.3525C197.002 15.4274 197.194 15.5251 197.347 15.6455C197.503 15.766 197.627 15.901 197.718 16.0508C197.812 16.2005 197.877 16.3584 197.913 16.5244C197.952 16.6904 197.972 16.8548 197.972 17.0176C197.972 17.3496 197.915 17.6442 197.801 17.9014C197.687 18.1585 197.529 18.3766 197.327 18.5557C197.125 18.7314 196.886 18.8665 196.609 18.9609C196.336 19.0521 196.04 19.0977 195.721 19.0977C195.408 19.0977 195.114 19.0537 194.837 18.9658C194.563 18.8779 194.326 18.7493 194.124 18.5801C193.922 18.4108 193.761 18.2041 193.641 17.96C193.523 17.7158 193.465 17.4375 193.465 17.125H194.368C194.368 17.3105 194.399 17.4798 194.461 17.6328C194.526 17.7858 194.617 17.916 194.734 18.0234C194.852 18.1309 194.993 18.2139 195.159 18.2725C195.328 18.3311 195.516 18.3604 195.721 18.3604C195.926 18.3604 196.111 18.3343 196.277 18.2822C196.443 18.2269 196.585 18.1439 196.702 18.0332C196.819 17.9225 196.909 17.7858 196.971 17.623C197.036 17.457 197.068 17.2617 197.068 17.0371C197.068 16.8158 197.031 16.6253 196.956 16.4658C196.884 16.3031 196.782 16.168 196.648 16.0605C196.518 15.9531 196.359 15.8734 196.17 15.8213C195.984 15.7692 195.779 15.7432 195.555 15.7432H194.91V15.0107ZM202.044 15.6748L203.455 13.7168H204.515L202.547 16.3291L204.568 19H203.523L202.063 16.9883L200.604 19H199.549L201.57 16.3291L199.603 13.7168H200.647L202.044 15.6748ZM206.189 15.4355L206.546 11.8906H210.193V12.7695H207.308L207.107 14.6641C207.247 14.5827 207.415 14.5111 207.61 14.4492C207.806 14.3874 208.032 14.3564 208.289 14.3564C208.618 14.3564 208.912 14.4134 209.173 14.5273C209.433 14.6413 209.655 14.8024 209.837 15.0107C210.019 15.2158 210.159 15.4648 210.257 15.7578C210.354 16.0508 210.403 16.3763 210.403 16.7344C210.403 17.0729 210.358 17.387 210.267 17.6768C210.175 17.9665 210.037 18.2171 209.852 18.4287C209.669 18.637 209.438 18.8014 209.158 18.9219C208.878 19.0391 208.549 19.0977 208.172 19.0977C207.882 19.0977 207.609 19.057 207.352 18.9756C207.094 18.8942 206.865 18.7721 206.663 18.6094C206.465 18.4466 206.3 18.2415 206.17 17.9941C206.043 17.7467 205.963 17.4587 205.931 17.1299H206.79C206.845 17.5335 206.993 17.8395 207.234 18.0479C207.479 18.2562 207.791 18.3604 208.172 18.3604C208.387 18.3604 208.577 18.3229 208.743 18.248C208.909 18.1699 209.048 18.0609 209.158 17.9209C209.272 17.7777 209.357 17.6068 209.412 17.4082C209.471 17.2096 209.5 16.9883 209.5 16.7441C209.5 16.5228 209.467 16.3161 209.402 16.124C209.34 15.932 209.249 15.766 209.129 15.626C209.008 15.4827 208.86 15.3704 208.685 15.2891C208.509 15.2077 208.307 15.167 208.079 15.167C207.929 15.167 207.799 15.1784 207.688 15.2012C207.581 15.2207 207.483 15.25 207.396 15.2891C207.308 15.3281 207.225 15.3753 207.146 15.4307C207.072 15.486 206.993 15.5495 206.912 15.6211L206.189 15.4355ZM212.928 15.0107H213.572C213.8 15.0107 214 14.9798 214.173 14.918C214.349 14.8561 214.495 14.7715 214.612 14.6641C214.733 14.5566 214.824 14.4281 214.886 14.2783C214.948 14.1286 214.979 13.9642 214.979 13.7852C214.979 13.3717 214.873 13.0609 214.661 12.8525C214.45 12.641 214.14 12.5352 213.733 12.5352C213.541 12.5352 213.366 12.5645 213.206 12.623C213.05 12.6784 212.915 12.7598 212.801 12.8672C212.69 12.9746 212.604 13.1032 212.542 13.2529C212.48 13.4027 212.449 13.5703 212.449 13.7559H211.541C211.541 13.4857 211.593 13.2318 211.697 12.9941C211.805 12.7533 211.954 12.5449 212.146 12.3691C212.339 12.1901 212.568 12.0501 212.835 11.9492C213.105 11.8451 213.405 11.793 213.733 11.793C214.052 11.793 214.344 11.8369 214.607 11.9248C214.871 12.0094 215.097 12.1364 215.286 12.3057C215.475 12.4749 215.621 12.6849 215.726 12.9355C215.83 13.1862 215.882 13.4759 215.882 13.8047C215.882 13.9414 215.861 14.083 215.818 14.2295C215.776 14.376 215.711 14.5192 215.623 14.6592C215.535 14.7959 215.421 14.9261 215.281 15.0498C215.145 15.1702 214.98 15.2712 214.788 15.3525C215.019 15.4274 215.211 15.5251 215.364 15.6455C215.521 15.766 215.644 15.901 215.735 16.0508C215.83 16.2005 215.895 16.3584 215.931 16.5244C215.97 16.6904 215.989 16.8548 215.989 17.0176C215.989 17.3496 215.932 17.6442 215.818 17.9014C215.704 18.1585 215.547 18.3766 215.345 18.5557C215.143 18.7314 214.904 18.8665 214.627 18.9609C214.354 19.0521 214.057 19.0977 213.738 19.0977C213.426 19.0977 213.131 19.0537 212.854 18.9658C212.581 18.8779 212.343 18.7493 212.142 18.5801C211.94 18.4108 211.779 18.2041 211.658 17.96C211.541 17.7158 211.482 17.4375 211.482 17.125H212.386C212.386 17.3105 212.417 17.4798 212.479 17.6328C212.544 17.7858 212.635 17.916 212.752 18.0234C212.869 18.1309 213.011 18.2139 213.177 18.2725C213.346 18.3311 213.533 18.3604 213.738 18.3604C213.943 18.3604 214.129 18.3343 214.295 18.2822C214.461 18.2269 214.603 18.1439 214.72 18.0332C214.837 17.9225 214.926 17.7858 214.988 17.623C215.053 17.457 215.086 17.2617 215.086 17.0371C215.086 16.8158 215.049 16.6253 214.974 16.4658C214.902 16.3031 214.799 16.168 214.666 16.0605C214.536 15.9531 214.376 15.8734 214.188 15.8213C214.002 15.7692 213.797 15.7432 213.572 15.7432H212.928V15.0107ZM219.451 18.4141C219.451 18.3164 219.466 18.2253 219.495 18.1406C219.528 18.056 219.573 17.9827 219.632 17.9209C219.69 17.8558 219.764 17.8053 219.852 17.7695C219.939 17.7337 220.042 17.7158 220.159 17.7158C220.276 17.7158 220.379 17.7337 220.467 17.7695C220.558 17.8053 220.633 17.8558 220.691 17.9209C220.753 17.9827 220.799 18.056 220.828 18.1406C220.861 18.2253 220.877 18.3164 220.877 18.4141C220.877 18.5085 220.861 18.598 220.828 18.6826C220.799 18.764 220.753 18.8356 220.691 18.8975C220.633 18.9593 220.558 19.0065 220.467 19.0391C220.379 19.0749 220.276 19.0928 220.159 19.0928C220.042 19.0928 219.939 19.0749 219.852 19.0391C219.764 19.0065 219.69 18.9593 219.632 18.8975C219.573 18.8356 219.528 18.764 219.495 18.6826C219.466 18.598 219.451 18.5085 219.451 18.4141ZM228.343 16.417C228.343 16.7946 228.297 17.1478 228.206 17.4766C228.115 17.8021 227.981 18.0853 227.806 18.3262C227.63 18.5671 227.412 18.7559 227.151 18.8926C226.894 19.0293 226.6 19.0977 226.268 19.0977C225.945 19.0977 225.66 19.0456 225.413 18.9414C225.169 18.8372 224.959 18.6875 224.783 18.4922V21.0312H223.88V13.7168H224.705L224.749 14.293C224.925 14.0749 225.136 13.9089 225.384 13.7949C225.634 13.6777 225.924 13.6191 226.253 13.6191C226.591 13.6191 226.891 13.6859 227.151 13.8193C227.412 13.9528 227.63 14.1383 227.806 14.376C227.981 14.6136 228.115 14.8984 228.206 15.2305C228.297 15.5592 228.343 15.9206 228.343 16.3145V16.417ZM227.439 16.3145C227.439 16.0573 227.41 15.8132 227.352 15.582C227.296 15.3477 227.208 15.1426 227.088 14.9668C226.971 14.7878 226.821 14.6462 226.639 14.542C226.456 14.4378 226.238 14.3857 225.984 14.3857C225.695 14.3857 225.451 14.4541 225.252 14.5908C225.057 14.7243 224.9 14.8968 224.783 15.1084V17.6523C224.9 17.8607 225.057 18.0316 225.252 18.165C225.447 18.2952 225.695 18.3604 225.994 18.3604C226.245 18.3604 226.461 18.3083 226.644 18.2041C226.826 18.0967 226.976 17.9535 227.093 17.7744C227.21 17.5954 227.296 17.3887 227.352 17.1543C227.41 16.9199 227.439 16.6742 227.439 16.417V16.3145ZM230.701 13.7168L230.765 14.498C230.957 14.2246 231.193 14.0114 231.473 13.8584C231.753 13.7021 232.065 13.6224 232.41 13.6191C232.687 13.6191 232.938 13.6582 233.162 13.7363C233.39 13.8145 233.584 13.9365 233.743 14.1025C233.903 14.2686 234.025 14.4801 234.109 14.7373C234.197 14.9912 234.241 15.2939 234.241 15.6455V19H233.338V15.665C233.338 15.4307 233.312 15.2321 233.26 15.0693C233.208 14.9066 233.13 14.7747 233.025 14.6738C232.924 14.5729 232.799 14.4997 232.649 14.4541C232.503 14.4085 232.334 14.3857 232.142 14.3857C231.839 14.3857 231.572 14.4622 231.341 14.6152C231.113 14.765 230.931 14.9635 230.794 15.2109V19H229.891V13.7168H230.701ZM235.73 16.3145C235.73 15.9206 235.778 15.5592 235.872 15.2305C235.97 14.8984 236.11 14.6136 236.292 14.376C236.474 14.1383 236.696 13.9528 236.956 13.8193C237.216 13.6859 237.511 13.6191 237.84 13.6191C238.165 13.6191 238.45 13.6777 238.694 13.7949C238.942 13.9089 239.152 14.0749 239.324 14.293L239.368 13.7168H240.188V18.8877C240.188 19.236 240.133 19.5452 240.022 19.8154C239.915 20.0856 239.762 20.3151 239.563 20.5039C239.368 20.6927 239.134 20.8359 238.86 20.9336C238.587 21.0312 238.284 21.0801 237.952 21.0801C237.815 21.0801 237.659 21.0638 237.483 21.0312C237.308 21.002 237.129 20.9515 236.946 20.8799C236.767 20.8115 236.593 20.7188 236.424 20.6016C236.258 20.4844 236.115 20.3395 235.994 20.167L236.463 19.625C236.574 19.7585 236.688 19.8708 236.805 19.9619C236.922 20.0563 237.041 20.1312 237.161 20.1865C237.282 20.2419 237.402 20.2809 237.522 20.3037C237.643 20.3298 237.763 20.3428 237.884 20.3428C238.099 20.3428 238.292 20.3118 238.465 20.25C238.637 20.1882 238.784 20.097 238.904 19.9766C239.028 19.8594 239.122 19.7129 239.188 19.5371C239.253 19.3613 239.285 19.1595 239.285 18.9316V18.4775C239.109 18.6794 238.901 18.834 238.66 18.9414C238.423 19.0456 238.146 19.0977 237.83 19.0977C237.508 19.0977 237.216 19.0293 236.956 18.8926C236.696 18.7559 236.474 18.5671 236.292 18.3262C236.113 18.0853 235.975 17.8021 235.877 17.4766C235.779 17.1478 235.73 16.7946 235.73 16.417V16.3145ZM236.634 16.417C236.634 16.6742 236.66 16.9183 236.712 17.1494C236.767 17.3805 236.852 17.584 236.966 17.7598C237.083 17.9355 237.231 18.0755 237.41 18.1797C237.589 18.2806 237.804 18.3311 238.055 18.3311C238.211 18.3311 238.351 18.3132 238.475 18.2773C238.602 18.2383 238.714 18.1846 238.812 18.1162C238.912 18.0479 239.002 17.9665 239.08 17.8721C239.158 17.7777 239.227 17.6735 239.285 17.5596V15.1377C239.227 15.027 239.158 14.9261 239.08 14.835C239.002 14.7438 238.912 14.6657 238.812 14.6006C238.711 14.5322 238.598 14.4801 238.475 14.4443C238.351 14.4053 238.214 14.3857 238.064 14.3857C237.811 14.3857 237.592 14.4378 237.41 14.542C237.231 14.6462 237.083 14.7878 236.966 14.9668C236.852 15.1426 236.767 15.3477 236.712 15.582C236.66 15.8132 236.634 16.0573 236.634 16.3145V16.417Z" fill="black"/>
</svg>
